<svg id="visual" viewBox="0 0 900 600" width="900" height="600" xmlns="http://www.w3.org/2000/svg" xmlns:xlink="http://www.w3.org/1999/xlink" version="1.1"><rect x="0" y="0" width="900" height="600" fill="#002233"></rect><path d="M603 600L613.3 583.3C623.7 566.7 644.3 533.3 670 500C695.7 466.7 726.3 433.3 710.2 400C694 366.7 631 333.3 630.7 300C630.3 266.7 692.7 233.3 727.8 200C763 166.7 771 133.3 742 100C713 66.7 647 33.3 614 16.7L581 0L900 0L900 16.7C900 33.3 900 66.7 900 100C900 133.3 900 166.7 900 200C900 233.3 900 266.7 900 300C900 333.3 900 366.7 900 400C900 433.3 900 466.7 900 500C900 533.3 900 566.7 900 583.3L900 600Z" fill="#0066FF" stroke-linecap="round" stroke-linejoin="miter"></path></svg>