<svg id="visual" viewBox="0 0 900 600" width="900" height="600" xmlns="http://www.w3.org/2000/svg" xmlns:xlink="http://www.w3.org/1999/xlink" version="1.1"><rect width="900" height="600" fill="#001829"></rect><g><g transform="translate(895 41)"><path d="M0 -71.4L55.9 -44.5L69.7 15.9L31 64.4L-31 64.4L-69.7 15.9L-55.9 -44.5Z" fill="none" stroke="#297EA6" stroke-width="2"></path></g><g transform="translate(474 152)"><path d="M0 -56L43.8 -34.9L54.6 12.5L24.3 50.5L-24.3 50.5L-54.6 12.5L-43.8 -34.9Z" fill="none" stroke="#297EA6" stroke-width="2"></path></g><g transform="translate(61 81)"><path d="M0 -41L32.1 -25.6L40 9.1L17.8 36.9L-17.8 36.9L-40 9.1L-32.1 -25.6Z" stroke="#297EA6" fill="none" stroke-width="2"></path></g><g transform="translate(411 571)"><path d="M0 -59L46.1 -36.8L57.5 13.1L25.6 53.2L-25.6 53.2L-57.5 13.1L-46.1 -36.8Z" stroke="#297EA6" fill="none" stroke-width="2"></path></g><g transform="translate(545 409)"><path d="M0 -67L52.4 -41.8L65.3 14.9L29.1 60.4L-29.1 60.4L-65.3 14.9L-52.4 -41.8Z" stroke="#297EA6" fill="none" stroke-width="2"></path></g><g transform="translate(824 346)"><path d="M0 -26L20.3 -16.2L25.3 5.8L11.3 23.4L-11.3 23.4L-25.3 5.8L-20.3 -16.2Z" stroke="#297EA6" fill="none" stroke-width="2"></path></g><g transform="translate(665 61)"><path d="M0 -53L41.4 -33L51.7 11.8L23 47.8L-23 47.8L-51.7 11.8L-41.4 -33Z" stroke="#297EA6" fill="none" stroke-width="2"></path></g><g transform="translate(694 202)"><path d="M0 -61L47.7 -38L59.5 13.6L26.5 55L-26.5 55L-59.5 13.6L-47.7 -38Z" stroke="#297EA6" fill="none" stroke-width="2"></path></g><g transform="translate(225 346)"><path d="M0 -58L45.3 -36.2L56.5 12.9L25.2 52.3L-25.2 52.3L-56.5 12.9L-45.3 -36.2Z" stroke="#297EA6" fill="none" stroke-width="2"></path></g><g transform="translate(155 500)"><path d="M0 -59L46.1 -36.8L57.5 13.1L25.6 53.2L-25.6 53.2L-57.5 13.1L-46.1 -36.8Z" stroke="#297EA6" fill="none" stroke-width="2"></path></g><g transform="translate(2 528)"><path d="M0 -29L22.7 -18.1L28.3 6.5L12.6 26.1L-12.6 26.1L-28.3 6.5L-22.7 -18.1Z" stroke="#297EA6" fill="none" stroke-width="2"></path></g></g></svg>