<?xml version="1.0" standalone="no"?><svg xmlns="http://www.w3.org/2000/svg" viewBox="0 0 1440 320"><path fill="#0099ff" fill-opacity="1" d="M0,96L20,112C40,128,80,160,120,192C160,224,200,256,240,272C280,288,320,288,360,288C400,288,440,288,480,266.7C520,245,560,203,600,170.7C640,139,680,117,720,112C760,107,800,117,840,101.3C880,85,920,43,960,58.7C1000,75,1040,149,1080,149.3C1120,149,1160,75,1200,58.7C1240,43,1280,85,1320,101.3C1360,117,1400,107,1420,101.3L1440,96L1440,320L1420,320C1400,320,1360,320,1320,320C1280,320,1240,320,1200,320C1160,320,1120,320,1080,320C1040,320,1000,320,960,320C920,320,880,320,840,320C800,320,760,320,720,320C680,320,640,320,600,320C560,320,520,320,480,320C440,320,400,320,360,320C320,320,280,320,240,320C200,320,160,320,120,320C80,320,40,320,20,320L0,320Z"></path></svg>